<svg xmlns="http://www.w3.org/2000/svg" viewBox="0 0 50 50" width="35" height="35" style="display:block;margin:0;padding:0;vertical-align:top" role="img" aria-label="News ticker icon">
  <path fill="currentColor" fill-opacity="0.7" d="M6 22.5h6v5H6a2.5 2.5 0 0 1 0-5Zm2.2-8.1 6.7 2.7-1.5 3.6-6.7-2.7 1.5-3.6Zm-1.5 17.7 6.7-2.7 1.5 3.6-6.7 2.7-1.5-3.6ZM16 18.5 34 11v28l-18-7.5v-13Zm4 2.7v7.6l10 4.2V17l-10 4.2ZM36 18h4.5A5.5 5.5 0 0 1 46 23.5v3A5.5 5.5 0 0 1 40.5 32H36V18Zm4 4v6h.5a1.5 1.5 0 0 0 1.5-1.5v-3a1.5 1.5 0 0 0-1.5-1.5H40ZM23 23h5v4h-5v-4Z"/>
</svg>